name C:\Users\u0101727\Documents\MyRepositories\upper-imu-dc\Results\main_tracking\Case_22\SHRUG01_linearAccelerations_bodyFrame.mot
datacolumns 4
datarows 105
range 0.71000000 1.75000000
endheader 
time	radius_imu_x	radius_imu_y	radius_imu_z	
          0.71000000	         -8.98017234	          9.97450237	          8.52576982	
          0.72000000	         -6.53893146	          9.66610011	          6.64098115	
          0.73000000	         -4.95758856	          9.54008025	          5.33022882	
          0.74000000	         -4.03663334	          9.46156790	          4.42031083	
          0.75000000	         -3.63661693	          9.40576283	          3.77526244	
          0.76000000	         -3.62261844	          9.36878115	          3.28463029	
          0.77000000	         -3.87543893	          9.35521844	          2.85799872	
          0.78000000	         -4.29674810	          9.36836991	          2.41850096	
          0.79000000	         -4.80479626	          9.40199420	          1.89575590	
          0.80000000	         -5.30572121	          9.43527834	          1.21715231	
          0.81000000	         -5.66051241	          9.44068732	          0.30873458	
          0.82000000	         -5.56659735	          9.35354855	         -0.93862544	
          0.83000000	         -4.66612280	          9.22578377	         -2.47327770	
          0.84000000	         -1.05341376	          8.33655647	         -4.57490948	
          0.85000000	          1.64286603	          9.23639812	         -4.33137353	
          0.86000000	         -0.65131727	          9.51021459	         -0.12372912	
          0.87000000	         -3.17849531	          9.88342488	          4.91397801	
          0.88000000	         -4.01464437	         10.26622375	          8.16666111	
          0.89000000	         -3.89613494	         10.33452632	          9.38857350	
          0.90000000	         -2.82340641	         10.32852465	          8.71043152	
          0.91000000	          1.15053520	          9.58475191	          6.01416506	
          0.92000000	          3.12311509	          9.47340531	          4.70860719	
          0.93000000	         -1.42260814	         10.45051003	          7.29062636	
          0.94000000	         -0.70933066	         10.13163293	          6.93679747	
          0.95000000	          0.27159684	          9.98008954	          5.88871036	
          0.96000000	         -1.12812468	         10.44458495	          5.27124995	
          0.97000000	         -0.06217313	         10.10604918	          2.86353717	
          0.98000000	         -0.60260280	         10.66349062	          1.29029129	
          0.99000000	          0.17640102	          9.79663522	         -0.69226694	
          1.00000000	         -2.94204354	         10.25200399	          0.22656950	
          1.01000000	         -4.47117707	         10.06497576	          2.05881407	
          1.02000000	         -5.19801545	          9.87371005	          3.55394537	
          1.03000000	         -5.38001199	          9.71560318	          4.73971451	
          1.04000000	         -5.21621854	          9.55468319	          5.49255581	
          1.05000000	         -4.83981537	          9.41531349	          5.77058736	
          1.06000000	         -4.24493215	          9.30183361	          5.51945785	
          1.07000000	         -3.29326289	          9.23525994	          4.69627632	
          1.08000000	         -1.68637371	          9.26386029	          3.28669878	
          1.09000000	          1.19775858	          9.52404928	          1.39547806	
          1.10000000	          5.57384297	          8.68173219	         -0.61618817	
          1.11000000	          2.62293025	          8.49983279	          1.09022218	
          1.12000000	         -0.43281110	          8.97812335	          3.15491781	
          1.13000000	         -2.32499115	          9.07364187	          4.25096421	
          1.14000000	         -3.62394318	          9.23250720	          4.73922398	
          1.15000000	         -4.47089214	          9.30477506	          4.78798605	
          1.16000000	         -4.96420411	          9.29828875	          4.61903114	
          1.17000000	         -5.14691605	          9.23989234	          4.37915766	
          1.18000000	         -5.06124247	          9.17322475	          4.15520829	
          1.19000000	         -4.75935373	          9.13270900	          3.98085080	
          1.20000000	         -4.30666740	          9.13404692	          3.85260711	
          1.21000000	         -3.77745393	          9.17222784	          3.74493844	
          1.22000000	         -3.24591090	          9.22757610	          3.62434606	
          1.23000000	         -2.77621348	          9.27587528	          3.46078295	
          1.24000000	         -2.41587879	          9.29710424	          3.23488737	
          1.25000000	         -2.19419364	          9.27920727	          2.94044054	
          1.26000000	         -2.12441472	          9.21725643	          2.58280636	
          1.27000000	         -2.20688702	          9.11094379	          2.17537326	
          1.28000000	         -2.43058722	          8.96337231	          1.73627499	
          1.29000000	         -2.77217207	          8.78210442	          1.28660174	
          1.30000000	         -3.19421224	          8.58099467	          0.84991105	
          1.31000000	         -3.64671509	          8.38012840	          0.45186377	
          1.32000000	         -4.07437359	          8.20192296	          0.11854382	
          1.33000000	         -4.42732723	          8.06427001	         -0.12713013	
          1.34000000	         -4.67079218	          7.97471291	         -0.26955801	
          1.35000000	         -4.78912104	          7.92957558	         -0.30247253	
          1.36000000	         -4.78292049	          7.91815908	         -0.22757145	
          1.37000000	         -4.66294895	          7.92856997	         -0.05155846	
          1.38000000	         -4.44553326	          7.95148371	          0.21594639	
          1.39000000	         -4.15091498	          7.97987110	          0.56324243	
          1.40000000	         -3.80242997	          8.00555106	          0.97700883	
          1.41000000	         -3.42463678	          8.01748094	          1.44280011	
          1.42000000	         -3.04063847	          8.00554336	          1.94559056	
          1.43000000	         -2.66896708	          7.96816365	          2.47078679	
          1.44000000	         -2.32192468	          7.91188395	          3.00250044	
          1.45000000	         -2.00980196	          7.85716567	          3.52541137	
          1.46000000	         -1.74381373	          7.80938382	          4.01328848	
          1.47000000	         -1.53691465	          7.81427495	          4.44911679	
          1.48000000	         -1.42454765	          7.83961332	          4.79548041	
          1.49000000	         -1.40950871	          7.95460825	          5.05093009	
          1.50000000	         -1.66081698	          7.98256213	          5.17417090	
          1.51000000	         -1.85086215	          8.26582945	          5.21772521	
          1.52000000	         -2.05909899	          8.74144685	          5.18001373	
          1.53000000	         -2.13662282	          9.15215920	          5.11848140	
          1.54000000	         -2.68923357	          8.22580400	          4.78459258	
          1.55000000	         -3.04872113	          8.00501625	          4.51010659	
          1.56000000	         -3.32797592	          8.08889483	          4.23121838	
          1.57000000	         -3.56769236	          8.21005251	          3.95006866	
          1.58000000	         -3.71762288	          8.34422079	          3.71396592	
          1.59000000	         -3.74166876	          8.48184576	          3.54731170	
          1.60000000	         -3.64318608	          8.62107324	          3.45856523	
          1.61000000	         -3.45981231	          8.74332258	          3.43729882	
          1.62000000	         -3.25331346	          8.81507110	          3.45897149	
          1.63000000	         -3.08356084	          8.81533169	          3.49332839	
          1.64000000	         -2.96785829	          8.81041907	          3.52543163	
          1.65000000	         -2.83155156	          8.97873096	          3.53677128	
          1.66000000	         -2.35410019	          9.67873769	          3.80272392	
          1.67000000	         -2.54509370	          8.86482147	          3.65192682	
          1.68000000	         -2.35329532	          8.99350434	          3.68488251	
          1.69000000	         -2.82428503	          8.44433538	          3.46622789	
          1.70000000	         -2.73627551	          7.86159125	          3.35366674	
          1.71000000	         -2.67312952	          7.96931380	          3.37585325	
          1.72000000	         -2.40457359	          8.27722863	          3.49551099	
          1.73000000	         -2.13220391	          8.53888021	          3.68675962	
          1.74000000	         -1.81273153	          8.72712495	          3.95339899	
          1.75000000	         -1.45910760	          8.82992087	          4.27393913	
